<svg xmlns="http://www.w3.org/2000/svg" xmlns:svg="http://www.w3.org/2000/svg" xmlns:xlink="http://www.w3.org/1999/xlink" id="svg4225" width="600" height="60" version="1.1" viewBox="0 0 600 60"><metadata id="metadata4258"/><g id="enabled" style="fill:#464646;fill-opacity:1"><g id="polyline" style="fill:#464646;fill-opacity:1"><path id="path4229" d="m 18,36 0,6 6,0 0,-6 -6,0 z m 4,4 -2,0 0,-2 2,0 0,2 z" style="fill:#464646;fill-opacity:1"/><path id="path4231" d="m 36,18 0,6 6,0 0,-6 -6,0 z m 4,4 -2,0 0,-2 2,0 0,2 z" style="fill:#464646;fill-opacity:1"/><path id="path4233" d="m 23.142,39.145 -2.285,-2.29 16,-15.998 2.285,2.285 z" style="fill:#464646;fill-opacity:1"/></g><path id="polygon" d="M 100,24.565 97.904,39.395 83.07,42 76,28.773 86.463,18 Z" style="fill:#464646;fill-opacity:1"/><path id="rectangle" d="m 140,20 20,0 0,20 -20,0 z" style="fill:#464646;fill-opacity:1"/><path id="circle" d="m 221,30 c 0,6.078 -4.926,11 -11,11 -6.074,0 -11,-4.922 -11,-11 0,-6.074 4.926,-11 11,-11 6.074,0 11,4.926 11,11 z" style="fill:#464646;fill-opacity:1"/><path id="marker" d="m 270,19 c -4.971,0 -9,4.029 -9,9 0,4.971 5.001,12 9,14 4.001,-2 9,-9.029 9,-14 0,-4.971 -4.029,-9 -9,-9 z m 0,12.5 c -2.484,0 -4.5,-2.014 -4.5,-4.5 0,-2.484 2.016,-4.5 4.5,-4.5 2.485,0 4.5,2.016 4.5,4.5 0,2.486 -2.015,4.5 -4.5,4.5 z" style="fill:#464646;fill-opacity:1"/><g id="edit" style="fill:#464646;fill-opacity:1"><path id="path4240" d="m 337,30.156 0,0.407 0,5.604 c 0,1.658 -1.344,3 -3,3 l -10,0 c -1.655,0 -3,-1.342 -3,-3 l 0,-10 c 0,-1.657 1.345,-3 3,-3 l 6.345,0 3.19,-3.17 -9.535,0 c -3.313,0 -6,2.687 -6,6 l 0,10 c 0,3.313 2.687,6 6,6 l 10,0 c 3.314,0 6,-2.687 6,-6 l 0,-8.809 -3,2.968" style="fill:#464646;fill-opacity:1"/><path id="path4242" d="m 338.72,24.637 -8.892,8.892 -2.828,0 0,-2.829 8.89,-8.89 z" style="fill:#464646;fill-opacity:1"/><path id="path4244" d="m 338.697,17.826 4,0 0,4 -4,0 z" transform="matrix(-0.70698336,-0.70723018,0.70723018,-0.70698336,567.55917,274.78273)" style="fill:#464646;fill-opacity:1"/></g><g id="remove" style="fill:#464646;fill-opacity:1"><path id="path4247" d="m 381,42 18,0 0,-18 -18,0 0,18 z m 14,-16 2,0 0,14 -2,0 0,-14 z m -4,0 2,0 0,14 -2,0 0,-14 z m -4,0 2,0 0,14 -2,0 0,-14 z m -4,0 2,0 0,14 -2,0 0,-14 z" style="fill:#464646;fill-opacity:1"/><path id="path4249" d="m 395,20 0,-4 -10,0 0,4 -6,0 0,2 22,0 0,-2 -6,0 z m -2,0 -6,0 0,-2 6,0 0,2 z" style="fill:#464646;fill-opacity:1"/></g></g><g id="disabled" transform="translate(120,0)" style="fill:#bbb"><use id="edit-disabled" width="100%" height="100%" x="0" y="0" xlink:href="#edit"/><use id="remove-disabled" width="100%" height="100%" x="0" y="0" xlink:href="#remove"/></g><path style="fill:none;stroke:#464646;stroke-width:2;stroke-miterlimit:4;stroke-dasharray:none;stroke-opacity:1" id="circle-3" d="m 581.65725,30 c 0,6.078 -4.926,11 -11,11 -6.074,0 -11,-4.922 -11,-11 0,-6.074 4.926,-11 11,-11 6.074,0 11,4.926 11,11 z"/></svg>